{
	"asset":{
		"generator":"Khronos glTF Blender I/O v4.3.47",
		"version":"2.0"
	},
	"scene":0,
	"scenes":[
		{
			"name":"Scene",
			"nodes":[
				0,
				1,
				2,
				3
			]
		}
	],
	"nodes":[
		{
			"mesh":0,
			"name":"fusil_2",
			"rotation":[
				0.7071068286895752,
				0,
				0,
				0.7071068286895752
			]
		},
		{
			"mesh":1,
			"name":"fusil_charguer_2",
			"rotation":[
				0.7071068286895752,
				0,
				0,
				0.7071068286895752
			]
		},
		{
			"mesh":2,
			"name":"fusil_handle_2",
			"rotation":[
				0.7071068286895752,
				0,
				0,
				0.7071068286895752
			]
		},
		{
			"mesh":3,
			"name":"fusil_scope_2",
			"rotation":[
				0.7071068286895752,
				0,
				0,
				0.7071068286895752
			]
		}
	],
	"meshes":[
		{
			"name":"fusil_2",
			"primitives":[
				{
					"attributes":{
						"POSITION":0,
						"NORMAL":1,
						"TEXCOORD_0":2
					},
					"indices":3
				}
			]
		},
		{
			"name":"fusil_charguer_2",
			"primitives":[
				{
					"attributes":{
						"POSITION":4,
						"NORMAL":5,
						"TEXCOORD_0":6
					},
					"indices":7
				}
			]
		},
		{
			"name":"fusil_handle_2",
			"primitives":[
				{
					"attributes":{
						"POSITION":8,
						"NORMAL":9,
						"TEXCOORD_0":10
					},
					"indices":11
				}
			]
		},
		{
			"name":"fusil_scope_2",
			"primitives":[
				{
					"attributes":{
						"POSITION":12,
						"NORMAL":13,
						"TEXCOORD_0":14
					},
					"indices":15
				}
			]
		}
	],
	"accessors":[
		{
			"bufferView":0,
			"componentType":5126,
			"count":1129,
			"max":[
				0.2353229969739914,
				1.5450869798660278,
				0.6465539932250977
			],
			"min":[
				-0.23416399955749512,
				-1.0834790468215942,
				-0.31265100836753845
			],
			"type":"VEC3"
		},
		{
			"bufferView":1,
			"componentType":5126,
			"count":1129,
			"type":"VEC3"
		},
		{
			"bufferView":2,
			"componentType":5126,
			"count":1129,
			"type":"VEC2"
		},
		{
			"bufferView":3,
			"componentType":5123,
			"count":2022,
			"type":"SCALAR"
		},
		{
			"bufferView":4,
			"componentType":5126,
			"count":52,
			"max":[
				0.12289399653673172,
				0.12201199680566788,
				0.7167090177536011
			],
			"min":[
				-0.12178599834442139,
				-0.22564099729061127,
				0.17095699906349182
			],
			"type":"VEC3"
		},
		{
			"bufferView":5,
			"componentType":5126,
			"count":52,
			"type":"VEC3"
		},
		{
			"bufferView":6,
			"componentType":5126,
			"count":52,
			"type":"VEC2"
		},
		{
			"bufferView":7,
			"componentType":5123,
			"count":84,
			"type":"SCALAR"
		},
		{
			"bufferView":8,
			"componentType":5126,
			"count":150,
			"max":[
				0.08994399756193161,
				-0.6112350225448608,
				0.5327979922294617
			],
			"min":[
				-0.08884000033140182,
				-0.8137980103492737,
				0.10094600170850754
			],
			"type":"VEC3"
		},
		{
			"bufferView":9,
			"componentType":5126,
			"count":150,
			"type":"VEC3"
		},
		{
			"bufferView":10,
			"componentType":5126,
			"count":150,
			"type":"VEC2"
		},
		{
			"bufferView":11,
			"componentType":5123,
			"count":264,
			"type":"SCALAR"
		},
		{
			"bufferView":12,
			"componentType":5126,
			"count":214,
			"max":[
				0.1035970002412796,
				0.4222230017185211,
				-0.27350500226020813
			],
			"min":[
				-0.10248800367116928,
				-0.2575730085372925,
				-0.5004000067710876
			],
			"type":"VEC3"
		},
		{
			"bufferView":13,
			"componentType":5126,
			"count":214,
			"type":"VEC3"
		},
		{
			"bufferView":14,
			"componentType":5126,
			"count":214,
			"type":"VEC2"
		},
		{
			"bufferView":15,
			"componentType":5123,
			"count":396,
			"type":"SCALAR"
		}
	],
	"bufferViews":[
		{
			"buffer":0,
			"byteLength":13548,
			"byteOffset":0,
			"target":34962
		},
		{
			"buffer":0,
			"byteLength":13548,
			"byteOffset":13548,
			"target":34962
		},
		{
			"buffer":0,
			"byteLength":9032,
			"byteOffset":27096,
			"target":34962
		},
		{
			"buffer":0,
			"byteLength":4044,
			"byteOffset":36128,
			"target":34963
		},
		{
			"buffer":0,
			"byteLength":624,
			"byteOffset":40172,
			"target":34962
		},
		{
			"buffer":0,
			"byteLength":624,
			"byteOffset":40796,
			"target":34962
		},
		{
			"buffer":0,
			"byteLength":416,
			"byteOffset":41420,
			"target":34962
		},
		{
			"buffer":0,
			"byteLength":168,
			"byteOffset":41836,
			"target":34963
		},
		{
			"buffer":0,
			"byteLength":1800,
			"byteOffset":42004,
			"target":34962
		},
		{
			"buffer":0,
			"byteLength":1800,
			"byteOffset":43804,
			"target":34962
		},
		{
			"buffer":0,
			"byteLength":1200,
			"byteOffset":45604,
			"target":34962
		},
		{
			"buffer":0,
			"byteLength":528,
			"byteOffset":46804,
			"target":34963
		},
		{
			"buffer":0,
			"byteLength":2568,
			"byteOffset":47332,
			"target":34962
		},
		{
			"buffer":0,
			"byteLength":2568,
			"byteOffset":49900,
			"target":34962
		},
		{
			"buffer":0,
			"byteLength":1712,
			"byteOffset":52468,
			"target":34962
		},
		{
			"buffer":0,
			"byteLength":792,
			"byteOffset":54180,
			"target":34963
		}
	],
	"buffers":[
		{
			"byteLength":54972,
			"uri":"battle_rifle.bin"
		}
	]
}
