{
	"asset":{
		"generator":"Khronos glTF Blender I/O v4.3.47",
		"version":"2.0"
	},
	"scene":0,
	"scenes":[
		{
			"name":"Scene",
			"nodes":[
				0,
				1,
				2
			]
		}
	],
	"nodes":[
		{
			"mesh":0,
			"name":"fusil_7",
			"rotation":[
				0.7071068286895752,
				0,
				0,
				0.7071068286895752
			]
		},
		{
			"mesh":1,
			"name":"fusil_charguer_7",
			"rotation":[
				0.7071068286895752,
				0,
				0,
				0.7071068286895752
			]
		},
		{
			"mesh":2,
			"name":"fusil_scope_7",
			"rotation":[
				0.7071068286895752,
				0,
				0,
				0.7071068286895752
			]
		}
	],
	"meshes":[
		{
			"name":"fusil_7",
			"primitives":[
				{
					"attributes":{
						"POSITION":0,
						"NORMAL":1,
						"TEXCOORD_0":2
					},
					"indices":3
				}
			]
		},
		{
			"name":"fusil_charguer_7",
			"primitives":[
				{
					"attributes":{
						"POSITION":4,
						"NORMAL":5,
						"TEXCOORD_0":6
					},
					"indices":7
				}
			]
		},
		{
			"name":"fusil_scope_7",
			"primitives":[
				{
					"attributes":{
						"POSITION":8,
						"NORMAL":9,
						"TEXCOORD_0":10
					},
					"indices":11
				}
			]
		}
	],
	"accessors":[
		{
			"bufferView":0,
			"componentType":5126,
			"count":1247,
			"max":[
				0.16635499894618988,
				1.4964619874954224,
				0.45214301347732544
			],
			"min":[
				-0.1678999960422516,
				-1.5377700328826904,
				-0.27927398681640625
			],
			"type":"VEC3"
		},
		{
			"bufferView":1,
			"componentType":5126,
			"count":1247,
			"type":"VEC3"
		},
		{
			"bufferView":2,
			"componentType":5126,
			"count":1247,
			"type":"VEC2"
		},
		{
			"bufferView":3,
			"componentType":5123,
			"count":2070,
			"type":"SCALAR"
		},
		{
			"bufferView":4,
			"componentType":5126,
			"count":578,
			"max":[
				0.0846410021185875,
				1.1663609743118286,
				0.5264359712600708
			],
			"min":[
				-0.07922500371932983,
				0.7415670156478882,
				0.009731000289320946
			],
			"type":"VEC3"
		},
		{
			"bufferView":5,
			"componentType":5126,
			"count":578,
			"type":"VEC3"
		},
		{
			"bufferView":6,
			"componentType":5126,
			"count":578,
			"type":"VEC2"
		},
		{
			"bufferView":7,
			"componentType":5123,
			"count":714,
			"type":"SCALAR"
		},
		{
			"bufferView":8,
			"componentType":5126,
			"count":168,
			"max":[
				0.08330299705266953,
				0.4479080140590668,
				-0.16766199469566345
			],
			"min":[
				-0.07125300168991089,
				0.2273779958486557,
				-0.38819199800491333
			],
			"type":"VEC3"
		},
		{
			"bufferView":9,
			"componentType":5126,
			"count":168,
			"type":"VEC3"
		},
		{
			"bufferView":10,
			"componentType":5126,
			"count":168,
			"type":"VEC2"
		},
		{
			"bufferView":11,
			"componentType":5123,
			"count":300,
			"type":"SCALAR"
		}
	],
	"bufferViews":[
		{
			"buffer":0,
			"byteLength":14964,
			"byteOffset":0,
			"target":34962
		},
		{
			"buffer":0,
			"byteLength":14964,
			"byteOffset":14964,
			"target":34962
		},
		{
			"buffer":0,
			"byteLength":9976,
			"byteOffset":29928,
			"target":34962
		},
		{
			"buffer":0,
			"byteLength":4140,
			"byteOffset":39904,
			"target":34963
		},
		{
			"buffer":0,
			"byteLength":6936,
			"byteOffset":44044,
			"target":34962
		},
		{
			"buffer":0,
			"byteLength":6936,
			"byteOffset":50980,
			"target":34962
		},
		{
			"buffer":0,
			"byteLength":4624,
			"byteOffset":57916,
			"target":34962
		},
		{
			"buffer":0,
			"byteLength":1428,
			"byteOffset":62540,
			"target":34963
		},
		{
			"buffer":0,
			"byteLength":2016,
			"byteOffset":63968,
			"target":34962
		},
		{
			"buffer":0,
			"byteLength":2016,
			"byteOffset":65984,
			"target":34962
		},
		{
			"buffer":0,
			"byteLength":1344,
			"byteOffset":68000,
			"target":34962
		},
		{
			"buffer":0,
			"byteLength":600,
			"byteOffset":69344,
			"target":34963
		}
	],
	"buffers":[
		{
			"byteLength":69944,
			"uri":"rifle.bin"
		}
	]
}
