{
	"asset":{
		"generator":"Khronos glTF Blender I/O v4.3.47",
		"version":"2.0"
	},
	"scene":0,
	"scenes":[
		{
			"name":"Scene",
			"nodes":[
				0
			]
		}
	],
	"nodes":[
		{
			"mesh":0,
			"name":"shotgun_2",
			"rotation":[
				0.7071068286895752,
				0,
				0,
				0.7071068286895752
			]
		}
	],
	"meshes":[
		{
			"name":"shotgun_2",
			"primitives":[
				{
					"attributes":{
						"POSITION":0,
						"NORMAL":1,
						"TEXCOORD_0":2
					},
					"indices":3
				}
			]
		}
	],
	"accessors":[
		{
			"bufferView":0,
			"componentType":5126,
			"count":991,
			"max":[
				0.1540910005569458,
				1.316890001296997,
				0.5278080105781555
			],
			"min":[
				-0.1531659960746765,
				-1.6452490091323853,
				-0.27357301115989685
			],
			"type":"VEC3"
		},
		{
			"bufferView":1,
			"componentType":5126,
			"count":991,
			"type":"VEC3"
		},
		{
			"bufferView":2,
			"componentType":5126,
			"count":991,
			"type":"VEC2"
		},
		{
			"bufferView":3,
			"componentType":5123,
			"count":1638,
			"type":"SCALAR"
		}
	],
	"bufferViews":[
		{
			"buffer":0,
			"byteLength":11892,
			"byteOffset":0,
			"target":34962
		},
		{
			"buffer":0,
			"byteLength":11892,
			"byteOffset":11892,
			"target":34962
		},
		{
			"buffer":0,
			"byteLength":7928,
			"byteOffset":23784,
			"target":34962
		},
		{
			"buffer":0,
			"byteLength":3276,
			"byteOffset":31712,
			"target":34963
		}
	],
	"buffers":[
		{
			"byteLength":34988,
			"uri":"shotgun.bin"
		}
	]
}
